<svg width="22" height="15" viewBox="0 0 22 15" fill="none" xmlns="http://www.w3.org/2000/svg">
<path d="M1.41477 12H0.306818L3.51136 3.27273H4.60227L7.80682 12H6.69886L4.09091 4.65341H4.02273L1.41477 12ZM1.82386 8.59091H6.28977V9.52841H1.82386V8.59091Z" fill="#C49A6C"/>
<path d="M6.64205 12L4.25568 3.27273H5.32955L7.15341 10.3807H7.23864L9.09659 3.27273H10.2898L12.1477 10.3807H12.233L14.0568 3.27273H15.1307L12.7443 12H11.6534L9.72727 5.04545H9.65909L7.73295 12H6.64205Z" fill="#C49A6C"/>
<path d="M21.0795 6H20.0227C19.9602 5.69602 19.8509 5.42898 19.6946 5.19886C19.5412 4.96875 19.3537 4.77557 19.1321 4.61932C18.9134 4.46023 18.6705 4.34091 18.4034 4.26136C18.1364 4.18182 17.858 4.14205 17.5682 4.14205C17.0398 4.14205 16.5611 4.27557 16.1321 4.54261C15.706 4.80966 15.3665 5.20312 15.1136 5.72301C14.8636 6.2429 14.7386 6.88068 14.7386 7.63636C14.7386 8.39205 14.8636 9.02983 15.1136 9.54972C15.3665 10.0696 15.706 10.4631 16.1321 10.7301C16.5611 10.9972 17.0398 11.1307 17.5682 11.1307C17.858 11.1307 18.1364 11.0909 18.4034 11.0114C18.6705 10.9318 18.9134 10.8139 19.1321 10.6577C19.3537 10.4986 19.5412 10.304 19.6946 10.0739C19.8509 9.84091 19.9602 9.57386 20.0227 9.27273H21.0795C21 9.71875 20.8551 10.1179 20.6449 10.4702C20.4347 10.8224 20.1733 11.1222 19.8608 11.3693C19.5483 11.6136 19.1974 11.7997 18.8082 11.9276C18.4219 12.0554 18.0085 12.1193 17.5682 12.1193C16.8239 12.1193 16.1619 11.9375 15.5824 11.5739C15.0028 11.2102 14.5469 10.6932 14.2145 10.0227C13.8821 9.35227 13.7159 8.55682 13.7159 7.63636C13.7159 6.71591 13.8821 5.92045 14.2145 5.25C14.5469 4.57955 15.0028 4.0625 15.5824 3.69886C16.1619 3.33523 16.8239 3.15341 17.5682 3.15341C18.0085 3.15341 18.4219 3.21733 18.8082 3.34517C19.1974 3.47301 19.5483 3.66051 19.8608 3.90767C20.1733 4.15199 20.4347 4.45028 20.6449 4.80256C20.8551 5.15199 21 5.55114 21.0795 6Z" fill="#C49A6C"/>
</svg>
